<?xml version="1.0" standalone="no"?>
<!DOCTYPE svg PUBLIC "-//W3C//DTD SVG 20010904//EN"
 "http://www.w3.org/TR/2001/REC-SVG-20010904/DTD/svg10.dtd">
<svg version="1.0" xmlns="http://www.w3.org/2000/svg"
 width="225.000000pt" height="225.000000pt" viewBox="0 0 225.000000 225.000000"
 preserveAspectRatio="xMidYMid meet">
<metadata>
Created by potrace 1.11, written by Peter Selinger 2001-2013
</metadata>
<g transform="translate(0.000000,225.000000) scale(0.100000,-0.100000)"
fill="#000000" stroke="none">
<path d="M0 1125 l0 -1125 1125 0 1125 0 0 1125 0 1125 -1125 0 -1125 0 0
-1125z m1262 833 l3 -103 60 -7 c80 -8 169 -39 246 -84 64 -38 189 -156 189
-179 0 -11 -103 -94 -146 -118 -6 -3 -40 22 -75 56 -35 35 -84 73 -109 85
-236 113 -515 40 -656 -173 -54 -81 -76 -156 -81 -280 -8 -177 32 -295 141
-412 205 -221 581 -201 764 41 l22 29 85 -58 c99 -68 99 -62 -4 -164 -106
-106 -242 -172 -384 -190 l-52 -6 -3 -102 -3 -103 -74 0 -75 0 0 105 c0 103 0
105 -23 105 -47 0 -145 32 -236 76 -255 125 -407 400 -387 699 13 197 92 366
234 495 97 89 294 180 389 180 23 0 23 2 23 105 l0 105 75 0 74 0 3 -102z"/>
</g>
</svg>
